<svg baseProfile="full" height="1280" version="1.1" width="1280" xmlns="http://www.w3.org/2000/svg" xmlns:ev="http://www.w3.org/2001/xml-events" xmlns:xlink="http://www.w3.org/1999/xlink"><defs /><rect fill="rgb(200,216,237)" height="1280" width="1280" x="0" y="0" /><polygon fill="rgb(200,216,237)" points="1089,661 1024,770 974,823 993,843 1006,907 1021,909 1148,728 1111,749 1111,714 1092,711 1100,706 1094,687 1106,676" stroke="none" /><polygon fill="rgb(200,216,237)" points="348,420 346,432 359,445 367,446 370,456 328,466 329,535 371,553 374,421" stroke="none" /><polygon fill="rgb(200,216,237)" points="1020,295 1019,557 1148,565 1134,594 1175,538 1164,516 1146,513 1158,490 1171,488 1172,454 1183,442 1115,366" stroke="none" /><polygon fill="rgb(200,216,237)" points="328,292 324,326 341,335 351,363 370,380 395,385 449,362 441,353 410,355 408,351 417,343 392,328 379,329 376,338 371,329 358,330 338,301 343,289" stroke="none" /><polygon fill="rgb(200,216,237)" points="874,234 852,240 826,257 814,250 804,251 801,246 796,247 795,258 799,271 829,307 837,307 837,292 840,288 856,282 856,276 874,241" stroke="none" /><polygon fill="rgb(200,216,237)" points="850,164 840,165 832,160 810,166 806,185 800,193 811,213 811,227 805,233 805,243 812,237 817,244 833,224 824,210 828,201 819,198 815,183 820,180 823,188 836,186 850,190 849,181 843,177 843,173 851,168" stroke="none" /><polygon fill="rgb(200,216,237)" points="476,145 503,154 502,133 526,132 528,139 523,142 514,138 508,152 537,149 550,130 550,125 493,110 491,120" stroke="none" /><polygon fill="rgb(200,216,237)" points="18,100 67,312 109,413 105,489 176,521 187,474 162,458 152,420 172,394 163,308 126,301 120,278 135,267 149,299 186,273 151,263 146,282 145,264 122,261 121,231 93,225 83,179 46,174" stroke="none" /><polygon fill="rgb(200,216,237)" points="932,100 874,124 852,109 829,106 816,113 817,127 828,126 833,119 846,119 848,123 838,127 836,133 847,138 869,129 879,155 886,156" stroke="none" /><polygon fill="rgb(200,216,237)" points="262,143 493,103 591,38 630,80 761,28 802,77 904,47 944,87 971,51 933,45 1019,30 1054,92 1065,25 1261,0 587,3 343,103 296,68" stroke="none" /><polygon fill="rgb(200,216,237)" points="32,0 33,5 68,11 71,17 80,13 93,32 95,46 104,46 109,33 114,31 117,34 115,51 144,8 137,0" stroke="none" /><polygon fill="rgb(11,111,224)" points="597,1271 789,1271 803,1265 684,1150 634,1157" stroke="none" /><polygon fill="rgb(11,111,224)" points="819,1066 875,1269 1032,1266 997,1156 980,1166 953,1094 919,1082 924,1066 904,1058" stroke="none" /><polygon fill="rgb(11,111,224)" points="1134,1057 1134,1067 1089,1144 1111,1164 1149,1243 1171,1088 1144,1067 1140,1057" stroke="none" /><polygon fill="rgb(11,111,224)" points="1155,997 1142,996 1133,1003 1108,1006 1105,1010 1106,1020 1116,1021 1121,1014 1132,1015 1134,1020 1131,1028 1120,1028 1111,1033 1107,1042 1131,1055 1138,1037 1150,1037 1156,1026 1163,1030 1164,1008" stroke="none" /><polygon fill="rgb(11,111,224)" points="74,740 58,745 57,803 41,811 73,853 17,857 9,887 0,875 0,1211 123,1104 104,1088 117,1009 67,973 165,900 213,834 178,809 145,833 137,796 113,785 84,802" stroke="none" /><polygon fill="rgb(11,111,224)" points="601,508 600,514 636,587 647,588 674,613 682,614 688,592 683,581 693,569 694,556" stroke="none" /><polygon fill="rgb(11,111,224)" points="0,60 0,395 11,397 6,411 58,421 83,406" stroke="none" /><polygon fill="rgb(226,233,243)" points="961,774 900,854 897,893 972,980 1030,894 1018,898 1004,882 998,865 1005,849 989,838 991,819" stroke="none" /><polygon fill="rgb(226,233,243)" points="846,444 838,513 891,544 903,519 920,503 925,489 912,478 878,464" stroke="none" /><polygon fill="rgb(226,233,243)" points="327,322 320,383 346,387 334,415 328,467 333,470 338,461 368,457 375,448 384,385 370,381 351,364 341,335" stroke="none" /><polygon fill="rgb(226,233,243)" points="1006,279 1015,310 1024,304 1034,314 1050,315 1221,458 1227,448 1241,449 1063,312" stroke="none" /><polygon fill="rgb(226,233,243)" points="47,227 110,489 110,392 96,348 102,339 87,337 72,295 64,292 71,281 61,274 69,269 59,264 57,239" stroke="none" /><polygon fill="rgb(226,233,243)" points="1169,183 1166,194 1177,192 1186,221 1168,241 1172,255 1182,263 1178,283 1188,287 1180,304 1190,307 1196,320 1216,325 1215,309 1202,296 1218,288 1224,252 1216,247 1215,237 1229,231 1233,223 1225,220 1222,227 1214,226 1212,221 1221,218 1216,210" stroke="none" /><polygon fill="rgb(226,233,243)" points="1165,44 1151,44 1138,54 1110,63 1101,61 1094,69 1083,65 1069,48 1053,62 1039,58 1025,62 1029,72 1021,81 1030,84 1030,95 1052,104" stroke="none" /><polygon fill="rgb(226,233,243)" points="1019,31 810,54 796,24 609,66 620,141 655,98 687,102 686,123 658,126 690,194 718,187 807,355 790,416 804,404 808,431 843,441 881,392 875,358 913,326 897,300" stroke="none" /><polygon fill="rgb(138,174,224)" points="809,761 795,753 695,782 683,791 658,791 595,812 645,818 678,802 705,803 716,795 784,789 797,775 812,780" stroke="none" /><polygon fill="rgb(138,174,224)" points="815,541 811,542 811,558 796,608 785,701 789,713 809,713 816,705 831,559 820,553" stroke="none" /><polygon fill="rgb(138,174,224)" points="1279,512 1192,747 1222,785 1209,827 1232,840 1194,911 1262,978 1228,984 1223,966 1196,992 1169,1132 1205,1128 1209,1108 1262,1156" stroke="none" /><polygon fill="rgb(138,174,224)" points="107,496 119,590 144,672 129,677 307,701 351,628 340,616 370,582 328,623 295,623 280,608 268,522 181,518 170,527 134,500" stroke="none" /><polygon fill="rgb(138,174,224)" points="766,438 763,443 766,450 763,470 760,473 750,473 747,481 777,508 786,526 794,529 800,524 797,515 802,512 802,506 813,505 818,492 814,485 783,461" stroke="none" /><polygon fill="rgb(138,174,224)" points="262,316 264,361 262,370 255,373 255,380 271,384 274,392 294,398 303,413 314,412 329,418 339,390 317,386 315,360 311,357 313,343 292,322 293,308 286,306 270,318" stroke="none" /><polygon fill="rgb(138,174,224)" points="703,339 699,355 706,361 738,369 753,369 759,364 760,373 773,382 786,384 790,379 788,369 792,362 782,357 776,340 779,334 777,317 767,295 735,310 726,317 715,335" stroke="none" /><polygon fill="rgb(138,174,224)" points="410,166 400,184 389,178 394,193 369,194 363,207 340,221 330,240 327,274 404,322 413,337 454,353 463,301 444,267 393,228 407,205" stroke="none" /><polygon fill="rgb(138,174,224)" points="658,104 633,127 612,171 655,180 667,209 695,219 663,263 697,306 676,332 698,332 717,319 730,288 759,275 720,193 687,197 654,127 658,115 680,108" stroke="none" /><polygon fill="rgb(138,174,224)" points="406,103 407,116 415,117 425,127 432,127 436,131 454,132 468,119 472,121 473,126 482,128 484,124 485,111 480,102 451,94 419,98" stroke="none" /><polygon fill="rgb(8,31,200)" points="986,1108 1004,1173 1042,1179 1053,1207 1108,1201 1117,1208 1075,1219 1083,1236 1041,1232 1049,1247 1062,1239 1081,1265 1103,1267 1109,1254 1144,1244 1132,1215 1121,1210 1126,1199 1110,1164 1086,1138" stroke="none" /><polygon fill="rgb(8,31,200)" points="1173,1083 1185,1017 1183,988 1054,1003 1105,1043 1114,1034 1123,1054 1168,1084" stroke="none" /><polygon fill="rgb(8,31,200)" points="159,908 155,907 139,916 70,972 73,980 102,998 118,1003 129,978 133,957" stroke="none" /><polygon fill="rgb(8,31,200)" points="432,456 378,473 372,601 220,829 258,891 286,887 381,981 459,813 471,709 502,698 465,611 519,611 527,667 577,646" stroke="none" /><polygon fill="rgb(5,5,11)" points="83,1143 106,1139 129,1123 158,1167 236,1231 307,1148 131,1093" stroke="none" /><polygon fill="rgb(5,5,11)" points="469,1023 454,1036 441,1064 427,1073 413,1095 402,1163 418,1171 412,1186 416,1197 409,1200 412,1220 449,1108" stroke="none" /><polygon fill="rgb(5,5,11)" points="680,917 640,902 625,909 471,1178 772,1140 745,1094 698,937" stroke="none" /><polygon fill="rgb(5,5,11)" points="705,862 708,918 790,949 816,1057 837,1058 845,1037 831,1028 834,1006 852,1008 863,995 831,915" stroke="none" /><polygon fill="rgb(5,5,11)" points="475,488 583,644 502,685 541,748 655,644 623,608 618,566" stroke="none" /><polygon fill="rgb(5,5,11)" points="434,409 491,447 564,482 526,381 497,373" stroke="none" /><polygon fill="rgb(226,218,204)" points="428,913 416,924 404,958 366,1035 368,1041 411,1055 417,1052 430,1012 430,1003 414,994" stroke="none" /><polygon fill="rgb(226,218,204)" points="561,892 525,894 474,1025 414,1253 481,1145 573,911" stroke="none" /><polygon fill="rgb(226,218,204)" points="519,871 532,870 628,836 632,831 587,818 553,817 548,810 540,807" stroke="none" /><polygon fill="rgb(226,218,204)" points="905,476 903,488 913,494 893,552 1016,556 1014,514 1008,515 1009,538 999,551 989,541 994,521 989,505 967,499 958,507 934,486" stroke="none" /><polygon fill="rgb(226,218,204)" points="1169,190 1122,358 1236,445 1225,453 1279,499 1276,246 1223,214 1208,218 1221,264 1193,310 1169,249 1187,209" stroke="none" /><polygon fill="rgb(226,218,204)" points="609,142 554,127 542,150 516,155 524,194 507,216 505,194 488,210 498,240 476,235 471,264 531,295 543,258 528,251 549,195 572,169 584,172 565,190 577,195 604,168" stroke="none" /><polygon fill="rgb(226,218,204)" points="1007,75 906,281 934,292 922,270 953,254 950,310 897,299 897,321 924,323 921,353 879,359 860,418 1012,362 1010,331 990,344 977,331 1010,305" stroke="none" /><polygon fill="rgb(226,218,204)" points="1206,23 1199,13 1175,11 1110,40 1111,21 1090,14 1086,24 1055,28 1051,40 1028,36 1014,59 1014,82 1043,99 1024,68 1043,45 1047,60 1072,52 1083,69 1109,68 1117,59 1142,59" stroke="none" /><polygon fill="rgb(226,218,204)" points="0,0 0,9 20,35 88,89 95,89 113,58 116,31 110,32 104,46 95,46 88,10 55,10 41,0" stroke="none" /><polygon fill="rgb(173,200,237)" points="769,791 738,787 735,792 719,789 708,795 706,783 692,783 659,793 635,807 621,805 603,817 630,827 650,827" stroke="none" /><polygon fill="rgb(173,200,237)" points="1156,406 1171,435 1154,445 1167,477 1142,503 1131,552 1154,545 1157,555 1178,535 1196,564 1153,568 1084,671 1098,680 1082,688 1100,715 1088,741 1107,763 1279,582 1274,503" stroke="none" /><polygon fill="rgb(173,200,237)" points="1136,250 1124,256 1132,268 1118,283 1113,281 1118,257 1096,264 1095,271 1081,282 1082,291 1077,284 1071,287 1077,299 1067,304 1099,335 1107,337 1117,351 1137,295 1129,277 1139,264" stroke="none" /><polygon fill="rgb(173,200,237)" points="870,126 864,122 860,130 850,135 850,140 845,145 824,150 821,154 812,156 810,162 824,173 830,173 854,183 860,175 866,173 872,160 874,140 870,137" stroke="none" /><polygon fill="rgb(173,200,237)" points="372,124 380,135 400,151 421,156 431,154 446,137 445,133 434,129 428,119 400,117 392,121" stroke="none" /><polygon fill="rgb(173,200,237)" points="0,18 45,174 134,264 121,317 163,305 156,414 179,420 175,448 136,404 112,418 152,423 188,474 180,517 268,519 259,423 316,418 255,378 283,303 80,140 88,93" stroke="none" /><polygon fill="rgb(120,151,194)" points="891,989 881,1055 897,1057 926,1053 933,1045 936,1035 924,1030 924,1022 920,1018 916,1018 909,1009 909,1005 899,998 898,992" stroke="none" /><polygon fill="rgb(120,151,194)" points="1246,956 1222,978 1267,986 1264,1111 1246,1119 1231,1089 1226,1110 1208,1109 1201,1084 1176,1082 1190,1112 1172,1104 1155,1269 1269,1269 1279,1253 1279,972" stroke="none" /><polygon fill="rgb(120,151,194)" points="776,792 774,800 782,819 794,819 792,824 786,825 787,832 799,839 823,844 825,834 809,833 808,824 799,821 804,816 801,806 805,804 812,808 821,801 830,802 834,799 834,791 830,790 825,795 822,780 817,779" stroke="none" /><polygon fill="rgb(120,151,194)" points="1235,639 1145,733 1039,891 1074,864 1085,828 1099,825 1173,735" stroke="none" /><polygon fill="rgb(120,151,194)" points="789,430 801,457 827,470 818,485 783,477 764,437 746,477 776,502 790,543 748,594 782,591 792,576 783,607 801,612 790,620 798,655 825,650 809,587 832,568 843,449" stroke="none" /><polygon fill="rgb(120,151,194)" points="263,422 273,434 273,519 256,528 276,565 281,609 295,622 328,622 371,572 370,556 302,521 328,500 319,485 327,471 323,448 330,427 327,420" stroke="none" /><polygon fill="rgb(120,151,194)" points="768,290 761,308 777,326 765,329 758,322 743,345 745,359 700,349 693,359 780,391 784,412 774,412 771,418 787,424 787,385 804,354" stroke="none" /><polygon fill="rgb(120,151,194)" points="365,123 287,150 262,148 266,185 279,194 269,198 267,253 247,243 251,261 238,268 311,319 330,238 346,215 375,213 393,231 430,178" stroke="none" /><polygon fill="rgb(120,151,194)" points="73,128 114,163 136,169 179,205 182,198 172,193 174,188 195,187 200,193 215,193 191,174 183,155 157,155 133,129 105,120 88,107" stroke="none" /><polygon fill="rgb(120,151,194)" points="1013,90 1011,93 1013,109 1010,112 1012,144 1029,145 1035,137 1046,140 1047,135 1053,131 1053,124 1063,121 1063,115" stroke="none" /><polygon fill="rgb(120,151,194)" points="574,66 569,65 563,70 541,76 535,81 521,81 517,86 502,89 497,94 496,106 551,122 555,106 571,79" stroke="none" /><polygon fill="rgb(120,151,194)" points="300,49 300,65 313,68 319,74 321,84 335,92 340,101 353,98 356,85 365,89 363,80 387,68 386,63 377,68 368,65 369,49 363,45 352,48 351,59 317,42" stroke="none" /><polygon fill="rgb(214,197,169)" points="900,906 892,980 904,991 918,1013 938,1031 963,988 945,959" stroke="none" /><polygon fill="rgb(214,197,169)" points="485,777 471,786 452,840 457,851 431,897 424,968 410,968 396,1001 381,1005 376,1035 386,1042 408,1034 415,996 435,996 513,812 537,810" stroke="none" /><polygon fill="rgb(214,197,169)" points="747,595 742,592 653,655 558,746 674,686 689,670 704,669 763,637" stroke="none" /><polygon fill="rgb(214,197,169)" points="1124,589 911,715 905,839 962,765 986,807 995,805 1044,738" stroke="none" /><polygon fill="rgb(214,197,169)" points="1011,367 955,376 858,420 872,457 991,523 974,572 967,564 960,580 910,601 910,670 969,643 942,595 1015,599" stroke="none" /><polygon fill="rgb(214,197,169)" points="680,375 687,384 692,384 704,401 757,397 764,409 770,409 779,397 777,391 743,382 729,375 719,375 689,364 685,365 687,372" stroke="none" /><polygon fill="rgb(214,197,169)" points="1009,298 997,301 973,330 967,302 949,304 959,294 956,251 927,241 900,300 924,320 885,351 876,378 953,357 933,347 958,325 966,336 998,341 1007,353" stroke="none" /><polygon fill="rgb(214,197,169)" points="552,191 528,255 540,259 553,259 562,265 584,269 585,256 590,253 589,201 584,194" stroke="none" /><polygon fill="rgb(158,178,210)" points="795,982 789,983 762,1026 741,1051 747,1072 768,1071 773,1066 791,1065 813,1055 802,1029 807,1022 803,1018 803,1006" stroke="none" /><polygon fill="rgb(158,178,210)" points="1279,603 1236,634 1003,941 1043,997 1188,982 1185,1055 1200,989 1265,977 1233,944 1249,935 1193,910 1227,881 1232,841 1209,828 1223,783 1194,743 1201,706 1219,706 1228,663" stroke="none" /><polygon fill="rgb(158,178,210)" points="1012,112 1014,277 1121,350 1118,325 1124,307 1134,306 1166,184 1178,172 1170,157 1145,170 1064,114 1038,128" stroke="none" /><polygon fill="rgb(79,150,234)" points="14,384 0,891 17,857 72,857 47,819 74,747 85,806 115,789 139,801 143,835 175,809 216,830 299,713 141,677 87,415 23,414" stroke="none" /><polygon fill="rgb(180,173,167)" points="998,557 939,557 944,575 938,586 915,578 910,569 894,592 925,592 933,598 937,590 948,590 957,580 962,585 982,578 990,581 998,573" stroke="none" /><polygon fill="rgb(180,173,167)" points="1053,105 1145,169 1169,164 1180,187 1271,239 1279,275 1276,0" stroke="none" /><polygon fill="rgb(180,173,167)" points="259,0 238,0 214,12 220,20 215,37 195,52 155,39 133,67 145,67 152,53 166,65 136,79 121,102 121,122 164,152 258,146 258,82 264,79 258,73" stroke="none" /><polygon fill="rgb(11,32,80)" points="764,1223 790,1249 808,1243 818,1246 820,1255 825,1258 822,1265 827,1271 861,1265 872,1270 856,1220 779,1220" stroke="none" /><polygon fill="rgb(11,32,80)" points="590,1179 580,1179 581,1165 576,1164 573,1172 568,1166 497,1176 481,1182 557,1210 558,1207 553,1204 556,1191 565,1190 568,1181 577,1187 588,1185" stroke="none" /><polygon fill="rgb(11,32,80)" points="140,1144 118,1172 123,1183 146,1184 110,1216 87,1211 95,1243 114,1239 110,1229 117,1223 128,1225 123,1274 222,1227 213,1220 208,1230 190,1230 203,1211 195,1208 184,1220 173,1210 185,1196 169,1186" stroke="none" /><polygon fill="rgb(11,32,80)" points="285,900 288,981 303,973 298,1006 280,1019 288,1035 288,1066 340,1085 385,985 340,950 296,900" stroke="none" /><polygon fill="rgb(11,32,80)" points="242,871 169,899 164,910 177,914 175,926 161,934 166,919 159,915 136,958 141,965 150,957 145,974 154,990 122,1009 254,1057 265,1032 254,1026 260,1000 239,1006 240,997 225,990 254,947 245,920 257,907 244,897" stroke="none" /><polygon fill="rgb(11,32,80)" points="659,840 647,837 638,851 629,850 621,856 604,853 604,858 616,860 620,867 617,870 605,867 595,875 592,884 585,885 576,919 580,919 587,901 605,904 611,918 617,919 643,889" stroke="none" /><polygon fill="rgb(11,32,80)" points="695,818 703,861 828,908 887,994 897,897 876,872 789,837 769,796 730,806 708,821" stroke="none" /><polygon fill="rgb(11,32,80)" points="559,486 558,494 568,501 566,507 568,517 574,520 574,525 582,537 582,544 618,563 617,554 587,493 573,491 570,485" stroke="none" /><polygon fill="rgb(84,124,174)" points="603,1244 591,1223 558,1225 464,1255 433,1270 497,1271 500,1264 510,1264 513,1271 571,1275 578,1268 594,1272" stroke="none" /><polygon fill="rgb(84,124,174)" points="1024,999 977,980 941,1035 894,990 888,1005 898,1009 925,1054 963,1053 989,1042 980,1036 967,1044 966,1020 973,1029 986,1023 998,1029 1010,1011 1024,1008" stroke="none" /><polygon fill="rgb(84,124,174)" points="905,720 863,738 855,729 841,730 838,743 826,750 829,776 774,796 789,835 868,865 888,883 900,845" stroke="none" /><polygon fill="rgb(84,124,174)" points="800,550 748,588 768,638 548,758 536,798 558,812 589,811 781,725" stroke="none" /><polygon fill="rgb(84,124,174)" points="156,157 151,174 165,185 165,198 170,205 227,249 250,274 262,275 259,262 263,259 265,236 212,193 178,180" stroke="none" /><polygon fill="rgb(155,149,143)" points="121,1015 125,1088 317,1142 312,1151 341,1169 392,1110 414,1065 365,1042 355,1074 338,1089 260,1070 253,1059" stroke="none" /><polygon fill="rgb(155,149,143)" points="1051,618 1032,599 993,604 989,599 952,601 943,596 971,644 926,666 922,675 911,675 913,692 929,706 994,667 1004,667 1020,638 1034,636" stroke="none" /><polygon fill="rgb(155,149,143)" points="534,369 535,373 561,383 570,375 574,384 592,397 591,407 636,429 650,431 663,425 651,409 618,383 596,383 575,368 564,369 561,362" stroke="none" /><polygon fill="rgb(155,149,143)" points="187,151 184,165 255,225 262,222 260,147" stroke="none" /><polygon fill="rgb(155,149,143)" points="143,0 148,8 96,96 120,117 130,112 129,123 154,99 164,104 150,125 215,114 218,93 245,81 251,50 233,61 223,57 228,44 220,28 237,20 221,12 242,0" stroke="none" /><polygon fill="rgb(11,40,120)" points="1004,1169 1038,1257 1036,1270 1135,1271 1152,1264 1141,1238 1108,1254 1100,1266 1085,1264 1079,1254 1081,1245 1095,1243 1084,1235 1104,1215 1133,1223 1123,1198 1055,1208 1044,1180 1027,1182" stroke="none" /><polygon fill="rgb(11,40,120)" points="631,1158 565,1166 561,1175 556,1169 497,1178 496,1182 506,1185 509,1180 525,1179 543,1205 581,1217 586,1205 611,1201 625,1178" stroke="none" /><polygon fill="rgb(11,40,120)" points="215,834 175,892 242,871 254,908 238,924 252,951 224,976 201,976 210,991 171,981 162,990 133,961 116,1005 163,1009 187,1035 286,1063 282,905 301,903 284,884 280,900 249,882 255,865" stroke="none" /><polygon fill="rgb(11,40,120)" points="689,823 667,829 664,841 673,850 664,853 659,864 651,865 638,893 639,899 664,908 682,907 679,893 686,874 679,862 686,858 695,861 703,858 702,854 691,849 690,841 697,839 698,835 690,830" stroke="none" /><polygon fill="rgb(11,40,120)" points="518,724 512,727 501,724 498,731 488,732 488,740 495,746 495,752 492,755 492,760 486,766 487,773 494,776 504,776 533,758 535,749" stroke="none" /><polygon fill="rgb(11,40,120)" points="467,610 464,620 468,642 476,645 496,680 506,681 526,671 528,666 519,662 517,640 521,611" stroke="none" /><polygon fill="rgb(11,40,120)" points="422,422 437,430 426,435 430,454 455,473 463,469 471,474 476,467 487,495 587,547 601,542 605,527 593,503 579,505 572,494 440,418" stroke="none" /><polygon fill="rgb(113,129,150)" points="477,988 467,987 462,980 454,980 449,984 442,1003 449,1005 457,1015 447,1028 443,1026 442,1017 435,1019 423,1065 432,1060 468,1014 477,1012 482,999" stroke="none" /><polygon fill="rgb(113,129,150)" points="1007,656 1133,580 1145,568 1021,559 1020,601 1029,610 1016,619 1023,627 1013,636" stroke="none" /><polygon fill="rgb(113,129,150)" points="722,449 721,444 712,436 714,432 720,431 720,427 712,415 683,416 676,419 672,425 667,425 661,431 654,433 654,436 664,443 699,456 705,456" stroke="none" /><polygon fill="rgb(113,129,150)" points="127,152 126,156 134,159 132,168 135,171 136,179 170,204 171,201 166,198 166,195 178,180 180,161 186,158 186,154 162,154 157,150 152,150 138,157 135,153" stroke="none" /><polygon fill="rgb(113,129,150)" points="441,147 426,162 432,176 422,195 439,210 452,212 458,220 463,220 466,226 475,228 485,215 483,201 462,159" stroke="none" /><polygon fill="rgb(113,129,150)" points="262,65 289,55 343,101 588,0 261,0" stroke="none" /><polygon fill="rgb(10,16,44)" points="129,1124 79,1146 0,1214 0,1275 126,1274 129,1228 116,1209 127,1213 134,1195 172,1196 164,1174 151,1186 152,1158 146,1168 138,1158 136,1175 128,1174 125,1163 143,1147" stroke="none" /><polygon fill="rgb(10,16,44)" points="424,1111 417,1118 411,1118 407,1125 404,1152 411,1158 403,1160 400,1167 394,1245 418,1218 428,1176 424,1167 413,1168 416,1147 429,1142 421,1136 419,1126 425,1119" stroke="none" /><polygon fill="rgb(10,16,44)" points="471,1018 463,1022 425,1071 413,1091 414,1100 431,1090 433,1095 429,1106 433,1107 440,1095 441,1084 449,1074 458,1073 458,1067 445,1070 443,1066 462,1060 472,1026" stroke="none" /><polygon fill="rgb(10,16,44)" points="810,902 832,935 817,927 804,967 822,948 842,959 825,969 833,978 828,1010 820,1015 826,1026 811,1032 816,1060 876,1055 885,986 832,913" stroke="none" /><polygon fill="rgb(10,16,44)" points="660,837 655,832 646,831 595,850 583,894 589,899 609,895 613,901 618,901 628,892 635,891 645,876" stroke="none" /><polygon fill="rgb(10,16,44)" points="573,542 566,552 577,568 594,569 602,579 593,598 614,585 617,604 593,621 568,611 562,616 582,645 592,645 616,619 616,640 626,639 628,651 642,646 624,666 629,674 677,631 665,626 646,591 635,591 616,556" stroke="none" /><polygon fill="rgb(23,86,156)" points="388,1171 358,1165 355,1175 344,1180 304,1250 308,1251 321,1238 321,1228 334,1219 338,1208 348,1204 350,1219 364,1219 361,1236 368,1237 380,1251 389,1236" stroke="none" /><polygon fill="rgb(23,86,156)" points="1133,1059 1093,1048 1095,1035 1054,1000 1034,1003 1021,1029 1042,1056 1026,1074 1039,1098 998,1078 1002,1040 1023,1068 1033,1062 1002,1023 976,1029 956,1012 958,1039 994,1040 915,1057 921,1083 954,1094 982,1167 997,1149 988,1107 1096,1137" stroke="none" /><polygon fill="rgb(23,86,156)" points="662,842 653,861 653,867 658,870 660,879 665,880 667,884 654,890 653,895 660,899 662,907 673,906 704,914 701,857" stroke="none" /><polygon fill="rgb(23,86,156)" points="502,700 497,706 474,712 478,767 491,775 502,762 504,752 515,753 510,748 514,737 518,739 519,748 529,746 510,708" stroke="none" /><polygon fill="rgb(23,86,156)" points="675,492 667,502 660,504 657,511 644,523 638,524 637,528 674,545 681,554 696,557 696,549 680,543 678,538 684,533 686,525 701,527 703,507 695,494 687,490" stroke="none" /><polygon fill="rgb(23,86,156)" points="748,484 743,485 726,554 726,566 741,587 746,587 760,575 788,543 787,534 775,509" stroke="none" /><polygon fill="rgb(23,86,156)" points="532,389 572,486 620,468 613,489 632,496 648,479 661,482 666,476 632,472 626,466 674,457 674,451 574,402" stroke="none" /><polygon fill="rgb(57,94,137)" points="284,1270 285,1274 378,1275 387,1270 392,1254 390,1241 375,1247 365,1230 376,1227 376,1217 353,1218 348,1202 336,1206 329,1202 324,1209 329,1218 318,1219 320,1231" stroke="none" /><polygon fill="rgb(57,94,137)" points="937,1040 944,1053 949,1043 972,1056 990,1046 1008,1095 1042,1097 1048,1090 1054,1110 1079,1110 1079,1103 1061,1101 1065,1084 1027,1078 1047,1067 1047,1042 1060,1050 1047,1028 1037,1033 1039,1042 1027,1044 1021,1034 1040,999 1012,1010 978,1004 974,1042 954,1015" stroke="none" /><polygon fill="rgb(57,94,137)" points="479,903 470,912 442,980 412,1086 425,1069 423,1060 445,1031 476,1013 482,934" stroke="none" /><polygon fill="rgb(57,94,137)" points="606,905 587,901 581,923 571,924 567,942 549,979 546,1004 558,1009 565,1006 617,919 608,912" stroke="none" /><polygon fill="rgb(57,94,137)" points="717,463 676,450 670,459 580,478 572,488 698,551 706,512 694,519 689,514 690,499 698,497 712,479" stroke="none" /><polygon fill="rgb(57,94,137)" points="456,369 444,368 387,388 379,436 387,441 377,445 378,453 392,453 396,460 429,452 417,413 464,390 462,376" stroke="none" /><polygon fill="rgb(57,94,137)" points="472,275 465,310 471,311 479,324 471,326 467,316 463,316 459,340 466,345 458,348 457,359 489,373 513,373 513,345 503,307 487,282" stroke="none" /><polygon fill="rgb(186,157,114)" points="412,1266 418,1269 422,1264 446,1259 539,1223 561,1221 563,1217 484,1189 467,1188" stroke="none" /><polygon fill="rgb(186,157,114)" points="345,1167 311,1152 285,1188 285,1196 274,1198 245,1235 209,1241 208,1253 188,1253 179,1269 275,1273" stroke="none" /><polygon fill="rgb(186,157,114)" points="501,882 491,883 487,895 486,920 489,924 490,941 486,945 486,960 482,968 483,980 489,978 517,916 522,896 520,889" stroke="none" /><polygon fill="rgb(186,157,114)" points="909,686 906,682 898,682 884,690 859,695 815,714 813,723 822,733 831,731 902,698 909,692" stroke="none" /><polygon fill="rgb(186,157,114)" points="834,559 834,586 840,589 935,587 944,582 942,564 935,559 894,556 883,572 879,570 880,560 876,556 841,554" stroke="none" /><polygon fill="rgb(186,157,114)" points="597,284 591,324 618,339 599,357 683,411 702,410 679,361 637,348 645,332 643,307 638,306 634,317 613,321 635,289" stroke="none" /><polygon fill="rgb(186,157,114)" points="547,260 543,265 534,298 537,299 540,295 543,295 546,298 547,307 563,315 576,318 577,314 572,311 572,308 588,289 590,282 581,275 562,267 556,267 552,260" stroke="none" /><polygon fill="rgb(186,157,114)" points="419,200 402,223 402,228 418,243 425,246 440,258 443,258 451,249 451,238 455,233 455,226 446,219 440,219 435,212 425,206 422,200" stroke="none" /><polygon fill="rgb(70,64,59)" points="790,1245 791,1249 813,1271 836,1273 867,1271 865,1261 858,1263 853,1261 854,1248 842,1240 832,1243 829,1233 823,1233 820,1239 811,1239" stroke="none" /><polygon fill="rgb(70,64,59)" points="816,1066 744,1076 753,1107 776,1134 772,1146 688,1149 757,1219 853,1217" stroke="none" /><polygon fill="rgb(70,64,59)" points="642,227 631,230 630,236 602,272 600,277 602,282 627,286 638,285 638,280 643,270 654,257" stroke="none" /><polygon fill="rgb(131,113,88)" points="693,916 735,1047 740,1048 760,1026 784,987 787,973 792,970 789,954 768,940" stroke="none" /><polygon fill="rgb(131,113,88)" points="906,594 878,596 874,592 832,590 823,708 879,690 908,674" stroke="none" /><polygon fill="rgb(131,113,88)" points="721,466 717,470 700,547 700,554 715,563 720,563 722,560 736,488 736,477" stroke="none" /></svg>